<mxfile host="app.diagrams.net" modified="2023-04-16T11:02:04.797Z" agent="Mozilla/5.0 (Windows NT 10.0; Win64; x64) AppleWebKit/537.36 (KHTML, like Gecko) Chrome/112.0.0.0 Safari/537.36" etag="6_WjXRoMnbhhiUKKJhxb" version="21.1.8" type="device">
  <diagram name="Page-1" id="5EPn5X0ofxlTtQ8D6UdC">
    <mxGraphModel dx="-968" dy="109" grid="1" gridSize="1" guides="1" tooltips="1" connect="1" arrows="1" fold="1" page="1" pageScale="1" pageWidth="1169" pageHeight="827" math="0" shadow="0">
      <root>
        <mxCell id="0" />
        <mxCell id="1" parent="0" />
        <mxCell id="xm1iW7sP6fKumooBNXpc-3" value="" style="rounded=0;whiteSpace=wrap;html=1;strokeWidth=2;" parent="1" vertex="1">
          <mxGeometry x="1552" y="74" width="165" height="318" as="geometry" />
        </mxCell>
        <mxCell id="xm1iW7sP6fKumooBNXpc-4" value="" style="line;strokeWidth=1;html=1;" parent="1" vertex="1">
          <mxGeometry x="1525" y="85" width="27" height="10" as="geometry" />
        </mxCell>
        <mxCell id="xm1iW7sP6fKumooBNXpc-5" value="NC" style="text;strokeColor=none;fillColor=none;html=1;fontSize=12;fontStyle=1;verticalAlign=middle;align=center;" parent="1" vertex="1">
          <mxGeometry x="1556" y="83.5" width="17" height="13" as="geometry" />
        </mxCell>
        <mxCell id="xm1iW7sP6fKumooBNXpc-6" value="" style="line;strokeWidth=1;html=1;" parent="1" vertex="1">
          <mxGeometry x="1525" y="101" width="27" height="10" as="geometry" />
        </mxCell>
        <mxCell id="xm1iW7sP6fKumooBNXpc-7" value="IOREF" style="text;strokeColor=none;fillColor=none;html=1;fontSize=12;fontStyle=1;verticalAlign=middle;align=center;" parent="1" vertex="1">
          <mxGeometry x="1555" y="99.5" width="39" height="13" as="geometry" />
        </mxCell>
        <mxCell id="xm1iW7sP6fKumooBNXpc-8" value="" style="line;strokeWidth=1;html=1;" parent="1" vertex="1">
          <mxGeometry x="1525" y="117" width="27" height="10" as="geometry" />
        </mxCell>
        <mxCell id="xm1iW7sP6fKumooBNXpc-9" value="" style="line;strokeWidth=1;html=1;" parent="1" vertex="1">
          <mxGeometry x="1525" y="133" width="27" height="10" as="geometry" />
        </mxCell>
        <mxCell id="xm1iW7sP6fKumooBNXpc-10" value="" style="line;strokeWidth=1;html=1;" parent="1" vertex="1">
          <mxGeometry x="1525" y="149" width="27" height="10" as="geometry" />
        </mxCell>
        <mxCell id="xm1iW7sP6fKumooBNXpc-12" value="" style="line;strokeWidth=1;html=1;" parent="1" vertex="1">
          <mxGeometry x="1525" y="181" width="27" height="10" as="geometry" />
        </mxCell>
        <mxCell id="xm1iW7sP6fKumooBNXpc-13" value="" style="line;strokeWidth=1;html=1;" parent="1" vertex="1">
          <mxGeometry x="1525" y="197" width="27" height="10" as="geometry" />
        </mxCell>
        <mxCell id="xm1iW7sP6fKumooBNXpc-15" value="" style="line;strokeWidth=1;html=1;" parent="1" vertex="1">
          <mxGeometry x="1525" y="229" width="27" height="10" as="geometry" />
        </mxCell>
        <mxCell id="xm1iW7sP6fKumooBNXpc-16" value="" style="line;strokeWidth=1;html=1;" parent="1" vertex="1">
          <mxGeometry x="1525" y="245.23" width="27" height="10" as="geometry" />
        </mxCell>
        <mxCell id="xm1iW7sP6fKumooBNXpc-17" value="" style="line;strokeWidth=1;html=1;" parent="1" vertex="1">
          <mxGeometry x="1525" y="261.23" width="27" height="10" as="geometry" />
        </mxCell>
        <mxCell id="xm1iW7sP6fKumooBNXpc-18" value="" style="line;strokeWidth=1;html=1;" parent="1" vertex="1">
          <mxGeometry x="1525" y="277.23" width="27" height="10" as="geometry" />
        </mxCell>
        <mxCell id="xm1iW7sP6fKumooBNXpc-19" value="" style="line;strokeWidth=1;html=1;" parent="1" vertex="1">
          <mxGeometry x="1525" y="293.23" width="27" height="10" as="geometry" />
        </mxCell>
        <mxCell id="xm1iW7sP6fKumooBNXpc-20" value="" style="line;strokeWidth=1;html=1;" parent="1" vertex="1">
          <mxGeometry x="1498" y="420" width="27" height="10" as="geometry" />
        </mxCell>
        <mxCell id="xm1iW7sP6fKumooBNXpc-21" value="RESET" style="text;strokeColor=none;fillColor=none;html=1;fontSize=12;fontStyle=1;verticalAlign=middle;align=center;" parent="1" vertex="1">
          <mxGeometry x="1555" y="115.5" width="42" height="13" as="geometry" />
        </mxCell>
        <mxCell id="xm1iW7sP6fKumooBNXpc-22" value="+3V3" style="text;strokeColor=none;fillColor=none;html=1;fontSize=12;fontStyle=1;verticalAlign=middle;align=center;" parent="1" vertex="1">
          <mxGeometry x="1555" y="131.5" width="29" height="13" as="geometry" />
        </mxCell>
        <mxCell id="xm1iW7sP6fKumooBNXpc-23" value="+5V" style="text;strokeColor=none;fillColor=none;html=1;fontSize=12;fontStyle=1;verticalAlign=middle;align=center;" parent="1" vertex="1">
          <mxGeometry x="1556" y="147.5" width="22" height="13" as="geometry" />
        </mxCell>
        <mxCell id="xm1iW7sP6fKumooBNXpc-24" value="GND" style="text;strokeColor=none;fillColor=none;html=1;fontSize=12;fontStyle=1;verticalAlign=middle;align=center;" parent="1" vertex="1">
          <mxGeometry x="1555" y="163.5" width="29" height="13" as="geometry" />
        </mxCell>
        <mxCell id="xm1iW7sP6fKumooBNXpc-25" value="GND" style="text;strokeColor=none;fillColor=none;html=1;fontSize=12;fontStyle=1;verticalAlign=middle;align=center;" parent="1" vertex="1">
          <mxGeometry x="1555" y="179.5" width="29" height="13" as="geometry" />
        </mxCell>
        <mxCell id="xm1iW7sP6fKumooBNXpc-26" value="VIN" style="text;strokeColor=none;fillColor=none;html=1;fontSize=12;fontStyle=1;verticalAlign=middle;align=center;" parent="1" vertex="1">
          <mxGeometry x="1557" y="195.5" width="22" height="13" as="geometry" />
        </mxCell>
        <mxCell id="xm1iW7sP6fKumooBNXpc-27" value="A0" style="text;strokeColor=none;fillColor=none;html=1;fontSize=12;fontStyle=1;verticalAlign=middle;align=center;" parent="1" vertex="1">
          <mxGeometry x="1557" y="227.5" width="18.5" height="13" as="geometry" />
        </mxCell>
        <mxCell id="xm1iW7sP6fKumooBNXpc-28" value="A1" style="text;strokeColor=none;fillColor=none;html=1;fontSize=12;fontStyle=1;verticalAlign=middle;align=center;" parent="1" vertex="1">
          <mxGeometry x="1557" y="244" width="18.5" height="13" as="geometry" />
        </mxCell>
        <mxCell id="xm1iW7sP6fKumooBNXpc-29" value="A2" style="text;strokeColor=none;fillColor=none;html=1;fontSize=12;fontStyle=1;verticalAlign=middle;align=center;" parent="1" vertex="1">
          <mxGeometry x="1555.25" y="259.73" width="18.5" height="13" as="geometry" />
        </mxCell>
        <mxCell id="xm1iW7sP6fKumooBNXpc-30" value="A3" style="text;strokeColor=none;fillColor=none;html=1;fontSize=12;fontStyle=1;verticalAlign=middle;align=center;" parent="1" vertex="1">
          <mxGeometry x="1556" y="275.73" width="18.5" height="13" as="geometry" />
        </mxCell>
        <mxCell id="xm1iW7sP6fKumooBNXpc-31" value="A4" style="text;strokeColor=none;fillColor=none;html=1;fontSize=12;fontStyle=1;verticalAlign=middle;align=center;" parent="1" vertex="1">
          <mxGeometry x="1555.25" y="291.73" width="18.5" height="13" as="geometry" />
        </mxCell>
        <mxCell id="xm1iW7sP6fKumooBNXpc-32" value="A5" style="text;strokeColor=none;fillColor=none;html=1;fontSize=12;fontStyle=1;verticalAlign=middle;align=center;" parent="1" vertex="1">
          <mxGeometry x="1557" y="307" width="18.5" height="13" as="geometry" />
        </mxCell>
        <mxCell id="xm1iW7sP6fKumooBNXpc-48" value="" style="line;strokeWidth=1;html=1;" parent="1" vertex="1">
          <mxGeometry x="1716" y="84.89" width="27" height="10" as="geometry" />
        </mxCell>
        <mxCell id="xm1iW7sP6fKumooBNXpc-49" value="" style="line;strokeWidth=1;html=1;" parent="1" vertex="1">
          <mxGeometry x="1716" y="100.89" width="27" height="10" as="geometry" />
        </mxCell>
        <mxCell id="xm1iW7sP6fKumooBNXpc-50" value="" style="line;strokeWidth=1;html=1;" parent="1" vertex="1">
          <mxGeometry x="1716" y="116.89" width="27" height="10" as="geometry" />
        </mxCell>
        <mxCell id="xm1iW7sP6fKumooBNXpc-51" value="" style="line;strokeWidth=1;html=1;" parent="1" vertex="1">
          <mxGeometry x="1716" y="132.89000000000001" width="27" height="10" as="geometry" />
        </mxCell>
        <mxCell id="xm1iW7sP6fKumooBNXpc-52" value="" style="line;strokeWidth=1;html=1;" parent="1" vertex="1">
          <mxGeometry x="1716" y="148.89000000000001" width="27" height="10" as="geometry" />
        </mxCell>
        <mxCell id="xm1iW7sP6fKumooBNXpc-53" value="" style="line;strokeWidth=1;html=1;" parent="1" vertex="1">
          <mxGeometry x="1716" y="164.89000000000001" width="27" height="10" as="geometry" />
        </mxCell>
        <mxCell id="xm1iW7sP6fKumooBNXpc-54" value="" style="line;strokeWidth=1;html=1;" parent="1" vertex="1">
          <mxGeometry x="1716" y="180.89000000000001" width="27" height="10" as="geometry" />
        </mxCell>
        <mxCell id="xm1iW7sP6fKumooBNXpc-55" value="" style="line;strokeWidth=1;html=1;" parent="1" vertex="1">
          <mxGeometry x="1716" y="196.89000000000001" width="27" height="10" as="geometry" />
        </mxCell>
        <mxCell id="xm1iW7sP6fKumooBNXpc-56" value="" style="line;strokeWidth=1;html=1;" parent="1" vertex="1">
          <mxGeometry x="1716" y="228.89000000000001" width="27" height="10" as="geometry" />
        </mxCell>
        <mxCell id="xm1iW7sP6fKumooBNXpc-58" value="" style="line;strokeWidth=1;html=1;" parent="1" vertex="1">
          <mxGeometry x="1716" y="261.12" width="27" height="10" as="geometry" />
        </mxCell>
        <mxCell id="xm1iW7sP6fKumooBNXpc-59" value="" style="line;strokeWidth=1;html=1;" parent="1" vertex="1">
          <mxGeometry x="1716" y="277.12" width="27" height="10" as="geometry" />
        </mxCell>
        <mxCell id="xm1iW7sP6fKumooBNXpc-60" value="" style="line;strokeWidth=1;html=1;" parent="1" vertex="1">
          <mxGeometry x="1716" y="293.12" width="27" height="10" as="geometry" />
        </mxCell>
        <mxCell id="xm1iW7sP6fKumooBNXpc-61" value="" style="line;strokeWidth=1;html=1;" parent="1" vertex="1">
          <mxGeometry x="1716" y="309.12" width="27" height="10" as="geometry" />
        </mxCell>
        <mxCell id="xm1iW7sP6fKumooBNXpc-63" value="SCL" style="text;strokeColor=none;fillColor=none;html=1;fontSize=12;fontStyle=1;verticalAlign=middle;align=center;" parent="1" vertex="1">
          <mxGeometry x="1686" y="84.89" width="27" height="13" as="geometry" />
        </mxCell>
        <mxCell id="xm1iW7sP6fKumooBNXpc-64" value="SDA" style="text;strokeColor=none;fillColor=none;html=1;fontSize=12;fontStyle=1;verticalAlign=middle;align=center;" parent="1" vertex="1">
          <mxGeometry x="1686" y="99.5" width="27" height="13" as="geometry" />
        </mxCell>
        <mxCell id="xm1iW7sP6fKumooBNXpc-65" value="AREF" style="text;strokeColor=none;fillColor=none;html=1;fontSize=12;fontStyle=1;verticalAlign=middle;align=center;" parent="1" vertex="1">
          <mxGeometry x="1681" y="116.89" width="32" height="13" as="geometry" />
        </mxCell>
        <mxCell id="xm1iW7sP6fKumooBNXpc-66" value="GND" style="text;strokeColor=none;fillColor=none;html=1;fontSize=12;fontStyle=1;verticalAlign=middle;align=center;" parent="1" vertex="1">
          <mxGeometry x="1685" y="132.89" width="28" height="13" as="geometry" />
        </mxCell>
        <mxCell id="xm1iW7sP6fKumooBNXpc-67" value="D13" style="text;strokeColor=none;fillColor=none;html=1;fontSize=12;fontStyle=1;verticalAlign=middle;align=center;" parent="1" vertex="1">
          <mxGeometry x="1689" y="148.89" width="24" height="13" as="geometry" />
        </mxCell>
        <mxCell id="xm1iW7sP6fKumooBNXpc-68" value="D12" style="text;strokeColor=none;fillColor=none;html=1;fontSize=12;fontStyle=1;verticalAlign=middle;align=center;" parent="1" vertex="1">
          <mxGeometry x="1689" y="164.89" width="24" height="13" as="geometry" />
        </mxCell>
        <mxCell id="xm1iW7sP6fKumooBNXpc-70" value="D11" style="text;strokeColor=none;fillColor=none;html=1;fontSize=12;fontStyle=1;verticalAlign=middle;align=center;" parent="1" vertex="1">
          <mxGeometry x="1689" y="179.39" width="24" height="13" as="geometry" />
        </mxCell>
        <mxCell id="xm1iW7sP6fKumooBNXpc-71" value="~D10" style="text;strokeColor=none;fillColor=none;html=1;fontSize=12;fontStyle=1;verticalAlign=middle;align=center;" parent="1" vertex="1">
          <mxGeometry x="1683" y="195.5" width="30" height="13" as="geometry" />
        </mxCell>
        <mxCell id="xm1iW7sP6fKumooBNXpc-72" value="" style="line;strokeWidth=1;html=1;" parent="1" vertex="1">
          <mxGeometry x="1717" y="213" width="27" height="10" as="geometry" />
        </mxCell>
        <mxCell id="xm1iW7sP6fKumooBNXpc-73" value="~D9" style="text;strokeColor=none;fillColor=none;html=1;fontSize=12;fontStyle=1;verticalAlign=middle;align=center;" parent="1" vertex="1">
          <mxGeometry x="1689" y="211.5" width="24" height="13" as="geometry" />
        </mxCell>
        <mxCell id="xm1iW7sP6fKumooBNXpc-74" value="D8" style="text;strokeColor=none;fillColor=none;html=1;fontSize=12;fontStyle=1;verticalAlign=middle;align=center;" parent="1" vertex="1">
          <mxGeometry x="1695" y="227.5" width="18" height="13" as="geometry" />
        </mxCell>
        <mxCell id="xm1iW7sP6fKumooBNXpc-75" value="D7" style="text;strokeColor=none;fillColor=none;html=1;fontSize=12;fontStyle=1;verticalAlign=middle;align=center;" parent="1" vertex="1">
          <mxGeometry x="1695" y="259.62" width="18" height="13" as="geometry" />
        </mxCell>
        <mxCell id="xm1iW7sP6fKumooBNXpc-78" value="~D6" style="text;strokeColor=none;fillColor=none;html=1;fontSize=12;fontStyle=1;verticalAlign=middle;align=center;" parent="1" vertex="1">
          <mxGeometry x="1689" y="275.62" width="24" height="13" as="geometry" />
        </mxCell>
        <mxCell id="xm1iW7sP6fKumooBNXpc-79" value="~D5" style="text;strokeColor=none;fillColor=none;html=1;fontSize=12;fontStyle=1;verticalAlign=middle;align=center;" parent="1" vertex="1">
          <mxGeometry x="1689" y="291.62" width="24" height="13" as="geometry" />
        </mxCell>
        <mxCell id="xm1iW7sP6fKumooBNXpc-80" value="D4" style="text;strokeColor=none;fillColor=none;html=1;fontSize=12;fontStyle=1;verticalAlign=middle;align=center;" parent="1" vertex="1">
          <mxGeometry x="1695" y="307.62" width="18" height="13" as="geometry" />
        </mxCell>
        <mxCell id="xm1iW7sP6fKumooBNXpc-81" value="" style="line;strokeWidth=1;html=1;" parent="1" vertex="1">
          <mxGeometry x="1717" y="325" width="27" height="10" as="geometry" />
        </mxCell>
        <mxCell id="xm1iW7sP6fKumooBNXpc-82" value="" style="line;strokeWidth=1;html=1;" parent="1" vertex="1">
          <mxGeometry x="1717" y="341" width="27" height="10" as="geometry" />
        </mxCell>
        <mxCell id="xm1iW7sP6fKumooBNXpc-83" value="" style="line;strokeWidth=1;html=1;" parent="1" vertex="1">
          <mxGeometry x="1717" y="357" width="27" height="10" as="geometry" />
        </mxCell>
        <mxCell id="xm1iW7sP6fKumooBNXpc-84" value="" style="line;strokeWidth=1;html=1;" parent="1" vertex="1">
          <mxGeometry x="1717" y="373" width="27" height="10" as="geometry" />
        </mxCell>
        <mxCell id="xm1iW7sP6fKumooBNXpc-85" value="~D3" style="text;strokeColor=none;fillColor=none;html=1;fontSize=12;fontStyle=1;verticalAlign=middle;align=center;" parent="1" vertex="1">
          <mxGeometry x="1689" y="323.5" width="24" height="13" as="geometry" />
        </mxCell>
        <mxCell id="xm1iW7sP6fKumooBNXpc-86" value="D2" style="text;strokeColor=none;fillColor=none;html=1;fontSize=12;fontStyle=1;verticalAlign=middle;align=center;" parent="1" vertex="1">
          <mxGeometry x="1695" y="339.5" width="18" height="13" as="geometry" />
        </mxCell>
        <mxCell id="xm1iW7sP6fKumooBNXpc-87" value="D1" style="text;strokeColor=none;fillColor=none;html=1;fontSize=12;fontStyle=1;verticalAlign=middle;align=center;" parent="1" vertex="1">
          <mxGeometry x="1695" y="355.5" width="18" height="13" as="geometry" />
        </mxCell>
        <mxCell id="xm1iW7sP6fKumooBNXpc-88" value="D0" style="text;strokeColor=none;fillColor=none;html=1;fontSize=12;fontStyle=1;verticalAlign=middle;align=center;" parent="1" vertex="1">
          <mxGeometry x="1695" y="371.5" width="18" height="13" as="geometry" />
        </mxCell>
        <mxCell id="xm1iW7sP6fKumooBNXpc-89" value="Arduino Uno&lt;br&gt;WiFi Rev2" style="text;strokeColor=none;fillColor=none;html=1;fontSize=17;fontStyle=1;verticalAlign=middle;align=center;" parent="1" vertex="1">
          <mxGeometry x="1579" y="343" width="111" height="40" as="geometry" />
        </mxCell>
        <mxCell id="xm1iW7sP6fKumooBNXpc-91" value="Step-down&lt;br style=&quot;font-size: 17px;&quot;&gt;LM2596" style="text;strokeColor=none;fillColor=none;html=1;fontSize=17;fontStyle=1;verticalAlign=middle;align=center;" parent="1" vertex="1">
          <mxGeometry x="1854" y="120" width="109" height="51" as="geometry" />
        </mxCell>
        <mxCell id="xm1iW7sP6fKumooBNXpc-111" value="" style="rounded=0;whiteSpace=wrap;html=1;strokeWidth=2;" parent="1" vertex="1">
          <mxGeometry x="1428" y="177" width="46" height="118" as="geometry" />
        </mxCell>
        <mxCell id="xm1iW7sP6fKumooBNXpc-116" value="GND" style="text;strokeColor=none;fillColor=none;html=1;fontSize=12;fontStyle=1;verticalAlign=middle;align=center;" parent="1" vertex="1">
          <mxGeometry x="1441" y="179.39000000000001" width="30" height="13" as="geometry" />
        </mxCell>
        <mxCell id="xm1iW7sP6fKumooBNXpc-121" value="VCC" style="text;strokeColor=none;fillColor=none;html=1;fontSize=12;fontStyle=1;verticalAlign=middle;align=center;" parent="1" vertex="1">
          <mxGeometry x="1442" y="195.5" width="29" height="13" as="geometry" />
        </mxCell>
        <mxCell id="xm1iW7sP6fKumooBNXpc-128" value="A0" style="text;strokeColor=none;fillColor=none;html=1;fontSize=12;fontStyle=1;verticalAlign=middle;align=center;" parent="1" vertex="1">
          <mxGeometry x="1453" y="227.96" width="18" height="13" as="geometry" />
        </mxCell>
        <mxCell id="xm1iW7sP6fKumooBNXpc-129" value="" style="line;strokeWidth=1;html=1;" parent="1" vertex="1">
          <mxGeometry x="1474" y="196.99999999999997" width="27" height="10" as="geometry" />
        </mxCell>
        <mxCell id="xm1iW7sP6fKumooBNXpc-133" value="" style="line;strokeWidth=1;html=1;" parent="1" vertex="1">
          <mxGeometry x="1473" y="228.52" width="27" height="10" as="geometry" />
        </mxCell>
        <mxCell id="xm1iW7sP6fKumooBNXpc-134" value="" style="line;strokeWidth=1;html=1;" parent="1" vertex="1">
          <mxGeometry x="1473" y="245.52" width="27" height="10" as="geometry" />
        </mxCell>
        <mxCell id="xm1iW7sP6fKumooBNXpc-135" value="" style="line;strokeWidth=1;html=1;" parent="1" vertex="1">
          <mxGeometry x="1474" y="261.40000000000003" width="27" height="10" as="geometry" />
        </mxCell>
        <mxCell id="xm1iW7sP6fKumooBNXpc-137" value="A1" style="text;strokeColor=none;fillColor=none;html=1;fontSize=12;fontStyle=1;verticalAlign=middle;align=center;" parent="1" vertex="1">
          <mxGeometry x="1453" y="242.96" width="18" height="13" as="geometry" />
        </mxCell>
        <mxCell id="xm1iW7sP6fKumooBNXpc-138" value="A2" style="text;strokeColor=none;fillColor=none;html=1;fontSize=12;fontStyle=1;verticalAlign=middle;align=center;" parent="1" vertex="1">
          <mxGeometry x="1453" y="258.96000000000004" width="18" height="13" as="geometry" />
        </mxCell>
        <mxCell id="xm1iW7sP6fKumooBNXpc-139" value="" style="line;strokeWidth=1;html=1;" parent="1" vertex="1">
          <mxGeometry x="1474" y="277.35" width="27" height="10" as="geometry" />
        </mxCell>
        <mxCell id="xm1iW7sP6fKumooBNXpc-141" value="A3" style="text;strokeColor=none;fillColor=none;html=1;fontSize=12;fontStyle=1;verticalAlign=middle;align=center;" parent="1" vertex="1">
          <mxGeometry x="1453" y="275.73" width="18" height="13" as="geometry" />
        </mxCell>
        <mxCell id="xm1iW7sP6fKumooBNXpc-143" value="" style="line;strokeWidth=1;html=1;" parent="1" vertex="1">
          <mxGeometry x="1474" y="180.89" width="27" height="10" as="geometry" />
        </mxCell>
        <mxCell id="xm1iW7sP6fKumooBNXpc-147" value="" style="endArrow=none;html=1;rounded=0;entryX=0;entryY=0.5;entryDx=0;entryDy=0;entryPerimeter=0;exitX=1;exitY=0.5;exitDx=0;exitDy=0;exitPerimeter=0;" parent="1" source="xm1iW7sP6fKumooBNXpc-184" target="xm1iW7sP6fKumooBNXpc-13" edge="1">
          <mxGeometry width="50" height="50" relative="1" as="geometry">
            <mxPoint x="1470" y="242" as="sourcePoint" />
            <mxPoint x="1520" y="192" as="targetPoint" />
          </mxGeometry>
        </mxCell>
        <mxCell id="xm1iW7sP6fKumooBNXpc-148" value="" style="endArrow=none;html=1;rounded=0;entryX=0;entryY=0.5;entryDx=0;entryDy=0;entryPerimeter=0;exitX=1;exitY=0.5;exitDx=0;exitDy=0;exitPerimeter=0;" parent="1" source="xm1iW7sP6fKumooBNXpc-177" target="xm1iW7sP6fKumooBNXpc-12" edge="1">
          <mxGeometry width="50" height="50" relative="1" as="geometry">
            <mxPoint x="1479" y="224" as="sourcePoint" />
            <mxPoint x="1529" y="174" as="targetPoint" />
          </mxGeometry>
        </mxCell>
        <mxCell id="xm1iW7sP6fKumooBNXpc-154" value="" style="ellipse;whiteSpace=wrap;html=1;aspect=fixed;fillColor=#000000;" parent="1" vertex="1">
          <mxGeometry x="1494.25" y="183.75" width="4.5" height="4.5" as="geometry" />
        </mxCell>
        <mxCell id="xm1iW7sP6fKumooBNXpc-155" value="" style="endArrow=none;html=1;rounded=0;entryX=0;entryY=0.5;entryDx=0;entryDy=0;entryPerimeter=0;exitX=1;exitY=0.5;exitDx=0;exitDy=0;exitPerimeter=0;" parent="1" source="xm1iW7sP6fKumooBNXpc-133" target="xm1iW7sP6fKumooBNXpc-15" edge="1">
          <mxGeometry width="50" height="50" relative="1" as="geometry">
            <mxPoint x="1470" y="281" as="sourcePoint" />
            <mxPoint x="1520" y="231" as="targetPoint" />
          </mxGeometry>
        </mxCell>
        <mxCell id="xm1iW7sP6fKumooBNXpc-158" value="" style="endArrow=none;html=1;rounded=0;entryX=0;entryY=0.5;entryDx=0;entryDy=0;entryPerimeter=0;exitX=1;exitY=0.5;exitDx=0;exitDy=0;exitPerimeter=0;" parent="1" source="xm1iW7sP6fKumooBNXpc-134" target="xm1iW7sP6fKumooBNXpc-16" edge="1">
          <mxGeometry width="50" height="50" relative="1" as="geometry">
            <mxPoint x="1500" y="254" as="sourcePoint" />
            <mxPoint x="1525" y="254" as="targetPoint" />
          </mxGeometry>
        </mxCell>
        <mxCell id="xm1iW7sP6fKumooBNXpc-160" value="" style="endArrow=none;html=1;rounded=0;exitX=1;exitY=0.5;exitDx=0;exitDy=0;exitPerimeter=0;entryX=0;entryY=0.5;entryDx=0;entryDy=0;entryPerimeter=0;" parent="1" source="xm1iW7sP6fKumooBNXpc-135" target="xm1iW7sP6fKumooBNXpc-17" edge="1">
          <mxGeometry width="50" height="50" relative="1" as="geometry">
            <mxPoint x="1502.5" y="259.62" as="sourcePoint" />
            <mxPoint x="1525" y="266" as="targetPoint" />
          </mxGeometry>
        </mxCell>
        <mxCell id="xm1iW7sP6fKumooBNXpc-161" value="" style="endArrow=none;html=1;rounded=0;entryX=0;entryY=0.5;entryDx=0;entryDy=0;entryPerimeter=0;exitX=1;exitY=0.5;exitDx=0;exitDy=0;exitPerimeter=0;" parent="1" source="xm1iW7sP6fKumooBNXpc-139" target="xm1iW7sP6fKumooBNXpc-18" edge="1">
          <mxGeometry width="50" height="50" relative="1" as="geometry">
            <mxPoint x="1501" y="278.62" as="sourcePoint" />
            <mxPoint x="1526" y="277.62" as="targetPoint" />
          </mxGeometry>
        </mxCell>
        <mxCell id="xm1iW7sP6fKumooBNXpc-164" value="Protoboard&lt;br style=&quot;font-size: 17px;&quot;&gt;(LDR)" style="text;strokeColor=none;fillColor=none;html=1;fontSize=17;fontStyle=1;verticalAlign=middle;align=center;" parent="1" vertex="1">
          <mxGeometry x="1395" y="299.5" width="113.5" height="40" as="geometry" />
        </mxCell>
        <mxCell id="xm1iW7sP6fKumooBNXpc-165" value="+5V" style="text;strokeColor=none;fillColor=none;html=1;fontSize=12;fontStyle=1;verticalAlign=middle;align=center;" parent="1" vertex="1">
          <mxGeometry x="1507.75" y="205" width="29" height="13" as="geometry" />
        </mxCell>
        <mxCell id="xm1iW7sP6fKumooBNXpc-171" value="" style="pointerEvents=1;verticalLabelPosition=bottom;shadow=0;dashed=0;align=center;html=1;verticalAlign=top;shape=mxgraph.electrical.signal_sources.signal_ground;" parent="1" vertex="1">
          <mxGeometry x="1486.5" y="207.96" width="20" height="20" as="geometry" />
        </mxCell>
        <mxCell id="xm1iW7sP6fKumooBNXpc-179" value="" style="line;strokeWidth=1;html=1;" parent="1" vertex="1">
          <mxGeometry x="1525" y="165" width="27" height="10" as="geometry" />
        </mxCell>
        <mxCell id="xm1iW7sP6fKumooBNXpc-180" value="" style="endArrow=none;html=1;rounded=0;entryX=0;entryY=0.5;entryDx=0;entryDy=0;entryPerimeter=0;exitX=1;exitY=0.5;exitDx=0;exitDy=0;exitPerimeter=0;" parent="1" source="xm1iW7sP6fKumooBNXpc-143" target="xm1iW7sP6fKumooBNXpc-177" edge="1">
          <mxGeometry width="50" height="50" relative="1" as="geometry">
            <mxPoint x="1501" y="186" as="sourcePoint" />
            <mxPoint x="1525" y="186" as="targetPoint" />
          </mxGeometry>
        </mxCell>
        <mxCell id="xm1iW7sP6fKumooBNXpc-177" value="" style="ellipse;whiteSpace=wrap;html=1;aspect=fixed;fillColor=#000000;" parent="1" vertex="1">
          <mxGeometry x="1522.5" y="183.64" width="4.5" height="4.5" as="geometry" />
        </mxCell>
        <mxCell id="xm1iW7sP6fKumooBNXpc-183" value="" style="endArrow=none;html=1;rounded=0;entryX=0;entryY=0.5;entryDx=0;entryDy=0;entryPerimeter=0;exitX=0.5;exitY=0;exitDx=0;exitDy=0;" parent="1" source="xm1iW7sP6fKumooBNXpc-177" target="xm1iW7sP6fKumooBNXpc-179" edge="1">
          <mxGeometry width="50" height="50" relative="1" as="geometry">
            <mxPoint x="1489" y="234" as="sourcePoint" />
            <mxPoint x="1539" y="184" as="targetPoint" />
          </mxGeometry>
        </mxCell>
        <mxCell id="xm1iW7sP6fKumooBNXpc-185" value="" style="endArrow=none;html=1;rounded=0;entryX=0;entryY=0.5;entryDx=0;entryDy=0;entryPerimeter=0;exitX=1;exitY=0.5;exitDx=0;exitDy=0;exitPerimeter=0;" parent="1" source="xm1iW7sP6fKumooBNXpc-129" target="xm1iW7sP6fKumooBNXpc-184" edge="1">
          <mxGeometry width="50" height="50" relative="1" as="geometry">
            <mxPoint x="1501" y="202" as="sourcePoint" />
            <mxPoint x="1525" y="202" as="targetPoint" />
          </mxGeometry>
        </mxCell>
        <mxCell id="xm1iW7sP6fKumooBNXpc-184" value="" style="ellipse;whiteSpace=wrap;html=1;aspect=fixed;fillColor=#000000;" parent="1" vertex="1">
          <mxGeometry x="1522.5" y="199.64" width="4.5" height="4.5" as="geometry" />
        </mxCell>
        <mxCell id="xm1iW7sP6fKumooBNXpc-186" value="" style="rounded=0;whiteSpace=wrap;html=1;strokeWidth=2;" parent="1" vertex="1">
          <mxGeometry x="1587" y="403" width="46" height="61" as="geometry" />
        </mxCell>
        <mxCell id="xm1iW7sP6fKumooBNXpc-189" value="Solar cell" style="text;strokeColor=none;fillColor=none;html=1;fontSize=17;fontStyle=1;verticalAlign=middle;align=center;" parent="1" vertex="1">
          <mxGeometry x="1562.5" y="460" width="95" height="32" as="geometry" />
        </mxCell>
        <mxCell id="xm1iW7sP6fKumooBNXpc-190" value="" style="rounded=0;whiteSpace=wrap;html=1;strokeWidth=2;" parent="1" vertex="1">
          <mxGeometry x="1444" y="401" width="55" height="52" as="geometry" />
        </mxCell>
        <mxCell id="xm1iW7sP6fKumooBNXpc-191" value="A5" style="text;strokeColor=none;fillColor=none;html=1;fontSize=12;fontStyle=1;verticalAlign=middle;align=center;" parent="1" vertex="1">
          <mxGeometry x="1476.5" y="405" width="18.5" height="13" as="geometry" />
        </mxCell>
        <mxCell id="xm1iW7sP6fKumooBNXpc-192" value="GND" style="text;strokeColor=none;fillColor=none;html=1;fontSize=12;fontStyle=1;verticalAlign=middle;align=center;" parent="1" vertex="1">
          <mxGeometry x="1466" y="433.31" width="30" height="13" as="geometry" />
        </mxCell>
        <mxCell id="xm1iW7sP6fKumooBNXpc-193" value="VCC" style="text;strokeColor=none;fillColor=none;html=1;fontSize=12;fontStyle=1;verticalAlign=middle;align=center;" parent="1" vertex="1">
          <mxGeometry x="1467" y="418.5" width="29" height="13" as="geometry" />
        </mxCell>
        <mxCell id="xm1iW7sP6fKumooBNXpc-198" value="" style="line;strokeWidth=1;html=1;" parent="1" vertex="1">
          <mxGeometry x="1499" y="405" width="27" height="10" as="geometry" />
        </mxCell>
        <mxCell id="xm1iW7sP6fKumooBNXpc-199" value="" style="line;strokeWidth=1;html=1;" parent="1" vertex="1">
          <mxGeometry x="1526" y="310.23" width="27" height="10" as="geometry" />
        </mxCell>
        <mxCell id="xm1iW7sP6fKumooBNXpc-200" value="" style="line;strokeWidth=1;html=1;" parent="1" vertex="1">
          <mxGeometry x="1499" y="434.81" width="27" height="10" as="geometry" />
        </mxCell>
        <mxCell id="xm1iW7sP6fKumooBNXpc-201" value="" style="endArrow=none;html=1;rounded=0;entryX=0;entryY=0.5;entryDx=0;entryDy=0;entryPerimeter=0;exitX=1;exitY=0.5;exitDx=0;exitDy=0;exitPerimeter=0;" parent="1" source="xm1iW7sP6fKumooBNXpc-198" target="xm1iW7sP6fKumooBNXpc-199" edge="1">
          <mxGeometry width="50" height="50" relative="1" as="geometry">
            <mxPoint x="1469" y="422" as="sourcePoint" />
            <mxPoint x="1519" y="372" as="targetPoint" />
          </mxGeometry>
        </mxCell>
        <mxCell id="xm1iW7sP6fKumooBNXpc-202" value="" style="line;strokeWidth=1;html=1;" parent="1" vertex="1">
          <mxGeometry x="1559" y="420" width="27" height="10" as="geometry" />
        </mxCell>
        <mxCell id="xm1iW7sP6fKumooBNXpc-203" value="" style="line;strokeWidth=1;html=1;" parent="1" vertex="1">
          <mxGeometry x="1560" y="434.81" width="27" height="10" as="geometry" />
        </mxCell>
        <mxCell id="xm1iW7sP6fKumooBNXpc-205" value="-" style="text;strokeColor=none;fillColor=none;html=1;fontSize=12;fontStyle=1;verticalAlign=middle;align=center;" parent="1" vertex="1">
          <mxGeometry x="1589" y="433.31" width="11" height="13" as="geometry" />
        </mxCell>
        <mxCell id="xm1iW7sP6fKumooBNXpc-206" value="+" style="text;strokeColor=none;fillColor=none;html=1;fontSize=12;fontStyle=1;verticalAlign=middle;align=center;" parent="1" vertex="1">
          <mxGeometry x="1590" y="417" width="10" height="13" as="geometry" />
        </mxCell>
        <mxCell id="xm1iW7sP6fKumooBNXpc-207" value="" style="endArrow=none;html=1;rounded=0;entryX=0;entryY=0.5;entryDx=0;entryDy=0;entryPerimeter=0;exitX=1;exitY=0.5;exitDx=0;exitDy=0;exitPerimeter=0;" parent="1" source="xm1iW7sP6fKumooBNXpc-20" target="xm1iW7sP6fKumooBNXpc-202" edge="1">
          <mxGeometry width="50" height="50" relative="1" as="geometry">
            <mxPoint x="1510" y="486" as="sourcePoint" />
            <mxPoint x="1560" y="436" as="targetPoint" />
          </mxGeometry>
        </mxCell>
        <mxCell id="xm1iW7sP6fKumooBNXpc-208" value="" style="endArrow=none;html=1;rounded=0;exitX=1;exitY=0.5;exitDx=0;exitDy=0;exitPerimeter=0;entryX=0;entryY=0.5;entryDx=0;entryDy=0;entryPerimeter=0;" parent="1" source="xm1iW7sP6fKumooBNXpc-212" target="xm1iW7sP6fKumooBNXpc-203" edge="1">
          <mxGeometry width="50" height="50" relative="1" as="geometry">
            <mxPoint x="1524" y="454" as="sourcePoint" />
            <mxPoint x="1555" y="451" as="targetPoint" />
          </mxGeometry>
        </mxCell>
        <mxCell id="xm1iW7sP6fKumooBNXpc-209" value="Protoboard&lt;br style=&quot;font-size: 17px;&quot;&gt;(Voltage divider)" style="text;strokeColor=none;fillColor=none;html=1;fontSize=17;fontStyle=1;verticalAlign=middle;align=center;" parent="1" vertex="1">
          <mxGeometry x="1413.5" y="460" width="113.5" height="40" as="geometry" />
        </mxCell>
        <mxCell id="xm1iW7sP6fKumooBNXpc-210" value="" style="pointerEvents=1;verticalLabelPosition=bottom;shadow=0;dashed=0;align=center;html=1;verticalAlign=top;shape=mxgraph.electrical.signal_sources.signal_ground;" parent="1" vertex="1">
          <mxGeometry x="1532" y="448" width="20" height="17" as="geometry" />
        </mxCell>
        <mxCell id="xm1iW7sP6fKumooBNXpc-211" value="" style="endArrow=none;html=1;rounded=0;entryX=0.5;entryY=0;entryDx=0;entryDy=0;entryPerimeter=0;" parent="1" target="xm1iW7sP6fKumooBNXpc-210" edge="1">
          <mxGeometry width="50" height="50" relative="1" as="geometry">
            <mxPoint x="1542" y="440" as="sourcePoint" />
            <mxPoint x="1527" y="453" as="targetPoint" />
          </mxGeometry>
        </mxCell>
        <mxCell id="xm1iW7sP6fKumooBNXpc-214" value="" style="endArrow=none;html=1;rounded=0;exitX=1;exitY=0.5;exitDx=0;exitDy=0;exitPerimeter=0;entryX=0;entryY=0.5;entryDx=0;entryDy=0;entryPerimeter=0;" parent="1" source="xm1iW7sP6fKumooBNXpc-200" target="xm1iW7sP6fKumooBNXpc-212" edge="1">
          <mxGeometry width="50" height="50" relative="1" as="geometry">
            <mxPoint x="1526" y="440" as="sourcePoint" />
            <mxPoint x="1560" y="440" as="targetPoint" />
          </mxGeometry>
        </mxCell>
        <mxCell id="xm1iW7sP6fKumooBNXpc-212" value="" style="ellipse;whiteSpace=wrap;html=1;aspect=fixed;fillColor=#000000;" parent="1" vertex="1">
          <mxGeometry x="1539.75" y="437.56" width="4.5" height="4.5" as="geometry" />
        </mxCell>
        <mxCell id="xm1iW7sP6fKumooBNXpc-215" value="" style="rounded=0;whiteSpace=wrap;html=1;strokeWidth=2;" parent="1" vertex="1">
          <mxGeometry x="1868.04" y="80.51" width="84" height="41.49" as="geometry" />
        </mxCell>
        <mxCell id="xm1iW7sP6fKumooBNXpc-216" value="" style="line;strokeWidth=1;html=1;" parent="1" vertex="1">
          <mxGeometry x="1841.04" y="88.26" width="27" height="10" as="geometry" />
        </mxCell>
        <mxCell id="xm1iW7sP6fKumooBNXpc-217" value="" style="line;strokeWidth=1;html=1;" parent="1" vertex="1">
          <mxGeometry x="1841.04" y="104.25999999999999" width="27" height="10" as="geometry" />
        </mxCell>
        <mxCell id="xm1iW7sP6fKumooBNXpc-220" value="" style="line;strokeWidth=1;html=1;" parent="1" vertex="1">
          <mxGeometry x="1952.04" y="88.5" width="27" height="10" as="geometry" />
        </mxCell>
        <mxCell id="xm1iW7sP6fKumooBNXpc-221" value="" style="line;strokeWidth=1;html=1;" parent="1" vertex="1">
          <mxGeometry x="1952.04" y="104.5" width="27" height="10" as="geometry" />
        </mxCell>
        <mxCell id="xm1iW7sP6fKumooBNXpc-222" value="IN+" style="text;strokeColor=none;fillColor=none;html=1;fontSize=12;fontStyle=1;verticalAlign=middle;align=center;" parent="1" vertex="1">
          <mxGeometry x="1927.04" y="87" width="24" height="13" as="geometry" />
        </mxCell>
        <mxCell id="xm1iW7sP6fKumooBNXpc-223" value="IN-" style="text;strokeColor=none;fillColor=none;html=1;fontSize=12;fontStyle=1;verticalAlign=middle;align=center;" parent="1" vertex="1">
          <mxGeometry x="1927.04" y="102" width="24" height="13" as="geometry" />
        </mxCell>
        <mxCell id="xm1iW7sP6fKumooBNXpc-224" value="OUT+" style="text;strokeColor=none;fillColor=none;html=1;fontSize=12;fontStyle=1;verticalAlign=middle;align=center;" parent="1" vertex="1">
          <mxGeometry x="1872.04" y="86.89" width="29" height="13" as="geometry" />
        </mxCell>
        <mxCell id="xm1iW7sP6fKumooBNXpc-226" value="OUT-" style="text;strokeColor=none;fillColor=none;html=1;fontSize=12;fontStyle=1;verticalAlign=middle;align=center;" parent="1" vertex="1">
          <mxGeometry x="1870.04" y="102.75999999999999" width="29" height="13" as="geometry" />
        </mxCell>
        <mxCell id="xm1iW7sP6fKumooBNXpc-238" value="Step-down&lt;br style=&quot;font-size: 17px;&quot;&gt;LM2596" style="text;strokeColor=none;fillColor=none;html=1;fontSize=17;fontStyle=1;verticalAlign=middle;align=center;" parent="1" vertex="1">
          <mxGeometry x="1858" y="306" width="109" height="51" as="geometry" />
        </mxCell>
        <mxCell id="xm1iW7sP6fKumooBNXpc-239" value="" style="rounded=0;whiteSpace=wrap;html=1;strokeWidth=2;" parent="1" vertex="1">
          <mxGeometry x="1868.04" y="266.4" width="84" height="41.49" as="geometry" />
        </mxCell>
        <mxCell id="xm1iW7sP6fKumooBNXpc-240" value="" style="line;strokeWidth=1;html=1;" parent="1" vertex="1">
          <mxGeometry x="1841.04" y="274.15" width="27" height="10" as="geometry" />
        </mxCell>
        <mxCell id="xm1iW7sP6fKumooBNXpc-241" value="" style="line;strokeWidth=1;html=1;" parent="1" vertex="1">
          <mxGeometry x="1841.04" y="290.15" width="27" height="10" as="geometry" />
        </mxCell>
        <mxCell id="xm1iW7sP6fKumooBNXpc-242" value="" style="line;strokeWidth=1;html=1;" parent="1" vertex="1">
          <mxGeometry x="1952.04" y="274.39" width="27" height="10" as="geometry" />
        </mxCell>
        <mxCell id="xm1iW7sP6fKumooBNXpc-243" value="" style="line;strokeWidth=1;html=1;" parent="1" vertex="1">
          <mxGeometry x="1952.04" y="290.39" width="27" height="10" as="geometry" />
        </mxCell>
        <mxCell id="xm1iW7sP6fKumooBNXpc-244" value="IN+" style="text;strokeColor=none;fillColor=none;html=1;fontSize=12;fontStyle=1;verticalAlign=middle;align=center;" parent="1" vertex="1">
          <mxGeometry x="1927.04" y="272.89" width="24" height="13" as="geometry" />
        </mxCell>
        <mxCell id="xm1iW7sP6fKumooBNXpc-245" value="IN-" style="text;strokeColor=none;fillColor=none;html=1;fontSize=12;fontStyle=1;verticalAlign=middle;align=center;" parent="1" vertex="1">
          <mxGeometry x="1927.04" y="287.89" width="24" height="13" as="geometry" />
        </mxCell>
        <mxCell id="xm1iW7sP6fKumooBNXpc-246" value="OUT+" style="text;strokeColor=none;fillColor=none;html=1;fontSize=12;fontStyle=1;verticalAlign=middle;align=center;" parent="1" vertex="1">
          <mxGeometry x="1872.04" y="272.78" width="29" height="13" as="geometry" />
        </mxCell>
        <mxCell id="xm1iW7sP6fKumooBNXpc-247" value="OUT-" style="text;strokeColor=none;fillColor=none;html=1;fontSize=12;fontStyle=1;verticalAlign=middle;align=center;" parent="1" vertex="1">
          <mxGeometry x="1870.04" y="288.65" width="29" height="13" as="geometry" />
        </mxCell>
        <mxCell id="xm1iW7sP6fKumooBNXpc-248" value="" style="rounded=0;whiteSpace=wrap;html=1;strokeWidth=2;rotation=90;" parent="1" vertex="1">
          <mxGeometry x="1775.23" y="316.5" width="53.54" height="66.12" as="geometry" />
        </mxCell>
        <mxCell id="xm1iW7sP6fKumooBNXpc-253" value="" style="line;strokeWidth=1;html=1;rotation=90;" parent="1" vertex="1">
          <mxGeometry x="1806.04" y="303.78000000000003" width="27" height="10" as="geometry" />
        </mxCell>
        <mxCell id="xm1iW7sP6fKumooBNXpc-255" value="" style="line;strokeWidth=1;html=1;rotation=-90;" parent="1" vertex="1">
          <mxGeometry x="1789.04" y="303.78000000000003" width="27" height="10" as="geometry" />
        </mxCell>
        <mxCell id="xm1iW7sP6fKumooBNXpc-266" value="" style="line;strokeWidth=1;html=1;rotation=-90;" parent="1" vertex="1">
          <mxGeometry x="1771.04" y="304.54" width="27" height="10" as="geometry" />
        </mxCell>
        <mxCell id="xm1iW7sP6fKumooBNXpc-267" value="GND" style="text;strokeColor=none;fillColor=none;html=1;fontSize=12;fontStyle=1;verticalAlign=middle;align=center;rotation=-90;" parent="1" vertex="1">
          <mxGeometry x="1806.04" y="334.78" width="28" height="13" as="geometry" />
        </mxCell>
        <mxCell id="xm1iW7sP6fKumooBNXpc-268" value="VCC" style="text;strokeColor=none;fillColor=none;html=1;fontSize=12;fontStyle=1;verticalAlign=middle;align=center;rotation=-90;" parent="1" vertex="1">
          <mxGeometry x="1788.04" y="334.78" width="29" height="13" as="geometry" />
        </mxCell>
        <mxCell id="xm1iW7sP6fKumooBNXpc-269" value="PWM" style="text;strokeColor=none;fillColor=none;html=1;fontSize=12;fontStyle=1;verticalAlign=middle;align=center;rotation=-90;" parent="1" vertex="1">
          <mxGeometry x="1770.04" y="337.28" width="29" height="13" as="geometry" />
        </mxCell>
        <mxCell id="xm1iW7sP6fKumooBNXpc-273" value="" style="endArrow=none;html=1;rounded=0;entryX=0;entryY=0.5;entryDx=0;entryDy=0;entryPerimeter=0;exitX=0;exitY=0.5;exitDx=0;exitDy=0;exitPerimeter=0;" parent="1" source="xm1iW7sP6fKumooBNXpc-253" target="xm1iW7sP6fKumooBNXpc-241" edge="1">
          <mxGeometry width="50" height="50" relative="1" as="geometry">
            <mxPoint x="1836.04" y="398.89" as="sourcePoint" />
            <mxPoint x="1886.04" y="348.89" as="targetPoint" />
          </mxGeometry>
        </mxCell>
        <mxCell id="xm1iW7sP6fKumooBNXpc-275" value="" style="line;strokeWidth=1;direction=south;html=1;" parent="1" vertex="1">
          <mxGeometry x="1797.54" y="278.89" width="10" height="17" as="geometry" />
        </mxCell>
        <mxCell id="xm1iW7sP6fKumooBNXpc-279" value="" style="endArrow=none;html=1;rounded=0;entryX=0;entryY=0.5;entryDx=0;entryDy=0;entryPerimeter=0;exitX=0;exitY=0.5;exitDx=0;exitDy=0;exitPerimeter=0;" parent="1" source="xm1iW7sP6fKumooBNXpc-275" target="xm1iW7sP6fKumooBNXpc-240" edge="1">
          <mxGeometry width="50" height="50" relative="1" as="geometry">
            <mxPoint x="1803.04" y="277.89" as="sourcePoint" />
            <mxPoint x="1831.04" y="282.89" as="targetPoint" />
          </mxGeometry>
        </mxCell>
        <mxCell id="xm1iW7sP6fKumooBNXpc-281" value="" style="pointerEvents=1;verticalLabelPosition=bottom;shadow=0;dashed=0;align=center;html=1;verticalAlign=top;shape=mxgraph.electrical.signal_sources.signal_ground;" parent="1" vertex="1">
          <mxGeometry x="1841.04" y="303.85" width="20" height="17" as="geometry" />
        </mxCell>
        <mxCell id="xm1iW7sP6fKumooBNXpc-282" value="" style="endArrow=none;html=1;rounded=0;entryX=0.5;entryY=0;entryDx=0;entryDy=0;entryPerimeter=0;" parent="1" target="xm1iW7sP6fKumooBNXpc-281" edge="1">
          <mxGeometry width="50" height="50" relative="1" as="geometry">
            <mxPoint x="1851.04" y="295.85" as="sourcePoint" />
            <mxPoint x="1836.04" y="308.85" as="targetPoint" />
          </mxGeometry>
        </mxCell>
        <mxCell id="xm1iW7sP6fKumooBNXpc-283" value="" style="ellipse;whiteSpace=wrap;html=1;aspect=fixed;fillColor=#000000;" parent="1" vertex="1">
          <mxGeometry x="1848.79" y="293.41" width="4.5" height="4.5" as="geometry" />
        </mxCell>
        <mxCell id="xm1iW7sP6fKumooBNXpc-284" value="+5V" style="text;strokeColor=none;fillColor=none;html=1;fontSize=12;fontStyle=1;verticalAlign=middle;align=center;" parent="1" vertex="1">
          <mxGeometry x="1817.04" y="266.14" width="29" height="13" as="geometry" />
        </mxCell>
        <mxCell id="xm1iW7sP6fKumooBNXpc-285" value="Servo&lt;br style=&quot;font-size: 17px;&quot;&gt;MG996R" style="text;strokeColor=none;fillColor=none;html=1;fontSize=17;fontStyle=1;verticalAlign=middle;align=center;" parent="1" vertex="1">
          <mxGeometry x="1760" y="374.89" width="84" height="51" as="geometry" />
        </mxCell>
        <mxCell id="xm1iW7sP6fKumooBNXpc-288" value="" style="rounded=0;whiteSpace=wrap;html=1;strokeWidth=2;rotation=90;" parent="1" vertex="1">
          <mxGeometry x="1775.23" y="130.37" width="53.54" height="66.12" as="geometry" />
        </mxCell>
        <mxCell id="xm1iW7sP6fKumooBNXpc-289" value="GND" style="text;strokeColor=none;fillColor=none;html=1;fontSize=12;fontStyle=1;verticalAlign=middle;align=center;rotation=-90;" parent="1" vertex="1">
          <mxGeometry x="1806.04" y="148.64999999999998" width="28" height="13" as="geometry" />
        </mxCell>
        <mxCell id="xm1iW7sP6fKumooBNXpc-290" value="VCC" style="text;strokeColor=none;fillColor=none;html=1;fontSize=12;fontStyle=1;verticalAlign=middle;align=center;rotation=-90;" parent="1" vertex="1">
          <mxGeometry x="1788.04" y="148.64999999999998" width="29" height="13" as="geometry" />
        </mxCell>
        <mxCell id="xm1iW7sP6fKumooBNXpc-291" value="PWM" style="text;strokeColor=none;fillColor=none;html=1;fontSize=12;fontStyle=1;verticalAlign=middle;align=center;rotation=-90;" parent="1" vertex="1">
          <mxGeometry x="1770.04" y="151.14999999999998" width="29" height="13" as="geometry" />
        </mxCell>
        <mxCell id="xm1iW7sP6fKumooBNXpc-292" value="" style="line;strokeWidth=1;html=1;rotation=90;" parent="1" vertex="1">
          <mxGeometry x="1806.58" y="118.00000000000003" width="27" height="10" as="geometry" />
        </mxCell>
        <mxCell id="xm1iW7sP6fKumooBNXpc-293" value="" style="line;strokeWidth=1;html=1;rotation=-90;" parent="1" vertex="1">
          <mxGeometry x="1789.58" y="118.00000000000003" width="27" height="10" as="geometry" />
        </mxCell>
        <mxCell id="xm1iW7sP6fKumooBNXpc-294" value="" style="line;strokeWidth=1;html=1;rotation=-90;" parent="1" vertex="1">
          <mxGeometry x="1771.37" y="118.55" width="27.42" height="10" as="geometry" />
        </mxCell>
        <mxCell id="xm1iW7sP6fKumooBNXpc-295" value="" style="endArrow=none;html=1;rounded=0;entryX=0;entryY=0.5;entryDx=0;entryDy=0;entryPerimeter=0;exitX=0;exitY=0.5;exitDx=0;exitDy=0;exitPerimeter=0;" parent="1" source="xm1iW7sP6fKumooBNXpc-292" target="xm1iW7sP6fKumooBNXpc-217" edge="1">
          <mxGeometry width="50" height="50" relative="1" as="geometry">
            <mxPoint x="1768" y="149" as="sourcePoint" />
            <mxPoint x="1818" y="99" as="targetPoint" />
          </mxGeometry>
        </mxCell>
        <mxCell id="xm1iW7sP6fKumooBNXpc-298" value="" style="line;strokeWidth=1;direction=south;html=1;" parent="1" vertex="1">
          <mxGeometry x="1798.08" y="93" width="10" height="16.76" as="geometry" />
        </mxCell>
        <mxCell id="xm1iW7sP6fKumooBNXpc-303" value="" style="endArrow=none;html=1;rounded=0;entryX=0;entryY=0.5;entryDx=0;entryDy=0;entryPerimeter=0;exitX=0;exitY=0.5;exitDx=0;exitDy=0;exitPerimeter=0;" parent="1" source="xm1iW7sP6fKumooBNXpc-216" target="xm1iW7sP6fKumooBNXpc-298" edge="1">
          <mxGeometry width="50" height="50" relative="1" as="geometry">
            <mxPoint x="1800" y="147" as="sourcePoint" />
            <mxPoint x="1850" y="97" as="targetPoint" />
          </mxGeometry>
        </mxCell>
        <mxCell id="xm1iW7sP6fKumooBNXpc-304" value="+5V" style="text;strokeColor=none;fillColor=none;html=1;fontSize=12;fontStyle=1;verticalAlign=middle;align=center;" parent="1" vertex="1">
          <mxGeometry x="1816.04" y="79" width="29" height="13" as="geometry" />
        </mxCell>
        <mxCell id="xm1iW7sP6fKumooBNXpc-305" value="" style="pointerEvents=1;verticalLabelPosition=bottom;shadow=0;dashed=0;align=center;html=1;verticalAlign=top;shape=mxgraph.electrical.signal_sources.signal_ground;" parent="1" vertex="1">
          <mxGeometry x="1841.04" y="117.44000000000003" width="20" height="17" as="geometry" />
        </mxCell>
        <mxCell id="xm1iW7sP6fKumooBNXpc-306" value="" style="endArrow=none;html=1;rounded=0;entryX=0.5;entryY=0;entryDx=0;entryDy=0;entryPerimeter=0;" parent="1" target="xm1iW7sP6fKumooBNXpc-305" edge="1">
          <mxGeometry width="50" height="50" relative="1" as="geometry">
            <mxPoint x="1851.04" y="109.44000000000003" as="sourcePoint" />
            <mxPoint x="1836.04" y="122.44000000000003" as="targetPoint" />
          </mxGeometry>
        </mxCell>
        <mxCell id="xm1iW7sP6fKumooBNXpc-307" value="" style="ellipse;whiteSpace=wrap;html=1;aspect=fixed;fillColor=#000000;" parent="1" vertex="1">
          <mxGeometry x="1848.79" y="107.00000000000003" width="4.5" height="4.5" as="geometry" />
        </mxCell>
        <mxCell id="xm1iW7sP6fKumooBNXpc-310" value="" style="endArrow=none;html=1;rounded=0;edgeStyle=orthogonalEdgeStyle;exitX=1;exitY=0.5;exitDx=0;exitDy=0;exitPerimeter=0;entryX=0.997;entryY=0.553;entryDx=0;entryDy=0;entryPerimeter=0;" parent="1" source="xm1iW7sP6fKumooBNXpc-55" target="xm1iW7sP6fKumooBNXpc-294" edge="1">
          <mxGeometry width="50" height="50" relative="1" as="geometry">
            <mxPoint x="1664" y="182" as="sourcePoint" />
            <mxPoint x="1785" y="110" as="targetPoint" />
            <Array as="points">
              <mxPoint x="1757" y="202" />
              <mxPoint x="1757" y="110" />
            </Array>
          </mxGeometry>
        </mxCell>
        <mxCell id="xm1iW7sP6fKumooBNXpc-311" value="" style="endArrow=none;html=1;rounded=0;edgeStyle=orthogonalEdgeStyle;entryX=1;entryY=0.5;entryDx=0;entryDy=0;entryPerimeter=0;exitX=0.963;exitY=0.5;exitDx=0;exitDy=0;exitPerimeter=0;" parent="1" source="xm1iW7sP6fKumooBNXpc-72" target="xm1iW7sP6fKumooBNXpc-266" edge="1">
          <mxGeometry width="50" height="50" relative="1" as="geometry">
            <mxPoint x="1768" y="275" as="sourcePoint" />
            <mxPoint x="1818" y="225" as="targetPoint" />
            <Array as="points">
              <mxPoint x="1757" y="218" />
              <mxPoint x="1757" y="296" />
            </Array>
          </mxGeometry>
        </mxCell>
        <mxCell id="xm1iW7sP6fKumooBNXpc-312" value="Servo&lt;br style=&quot;font-size: 17px;&quot;&gt;MG996R" style="text;strokeColor=none;fillColor=none;html=1;fontSize=17;fontStyle=1;verticalAlign=middle;align=center;" parent="1" vertex="1">
          <mxGeometry x="1761.08" y="187.52" width="84" height="51" as="geometry" />
        </mxCell>
        <mxCell id="xm1iW7sP6fKumooBNXpc-313" value="" style="rounded=0;whiteSpace=wrap;html=1;strokeWidth=2;" parent="1" vertex="1">
          <mxGeometry x="1920.04" y="175.67999999999998" width="32" height="56.99" as="geometry" />
        </mxCell>
        <mxCell id="xm1iW7sP6fKumooBNXpc-314" value="Battery" style="text;strokeColor=none;fillColor=none;html=1;fontSize=17;fontStyle=1;verticalAlign=middle;align=center;" parent="1" vertex="1">
          <mxGeometry x="1903.04" y="230.79" width="67" height="30.61" as="geometry" />
        </mxCell>
        <mxCell id="xm1iW7sP6fKumooBNXpc-315" value="" style="line;strokeWidth=1;html=1;" parent="1" vertex="1">
          <mxGeometry x="1952.04" y="191.17" width="27" height="10" as="geometry" />
        </mxCell>
        <mxCell id="xm1iW7sP6fKumooBNXpc-316" value="" style="line;strokeWidth=1;html=1;" parent="1" vertex="1">
          <mxGeometry x="1952.04" y="207.17" width="27" height="10" as="geometry" />
        </mxCell>
        <mxCell id="xm1iW7sP6fKumooBNXpc-317" value="+" style="text;strokeColor=none;fillColor=none;html=1;fontSize=12;fontStyle=1;verticalAlign=middle;align=center;" parent="1" vertex="1">
          <mxGeometry x="1938.04" y="190.29" width="13" height="13" as="geometry" />
        </mxCell>
        <mxCell id="xm1iW7sP6fKumooBNXpc-318" value="-" style="text;strokeColor=none;fillColor=none;html=1;fontSize=12;fontStyle=1;verticalAlign=middle;align=center;" parent="1" vertex="1">
          <mxGeometry x="1938.04" y="204.17" width="13" height="13" as="geometry" />
        </mxCell>
        <mxCell id="xm1iW7sP6fKumooBNXpc-320" value="" style="endArrow=none;html=1;rounded=0;edgeStyle=orthogonalEdgeStyle;entryX=1;entryY=0.5;entryDx=0;entryDy=0;entryPerimeter=0;exitX=1;exitY=0.5;exitDx=0;exitDy=0;exitPerimeter=0;" parent="1" source="xm1iW7sP6fKumooBNXpc-242" target="xm1iW7sP6fKumooBNXpc-220" edge="1">
          <mxGeometry width="50" height="50" relative="1" as="geometry">
            <mxPoint x="1987" y="255" as="sourcePoint" />
            <mxPoint x="2049" y="124" as="targetPoint" />
            <Array as="points">
              <mxPoint x="2002" y="279" />
              <mxPoint x="2002" y="94" />
            </Array>
          </mxGeometry>
        </mxCell>
        <mxCell id="xm1iW7sP6fKumooBNXpc-321" value="" style="endArrow=none;html=1;rounded=0;edgeStyle=orthogonalEdgeStyle;entryX=1;entryY=0.5;entryDx=0;entryDy=0;entryPerimeter=0;exitX=1;exitY=0.5;exitDx=0;exitDy=0;exitPerimeter=0;" parent="1" source="xm1iW7sP6fKumooBNXpc-243" target="xm1iW7sP6fKumooBNXpc-221" edge="1">
          <mxGeometry width="50" height="50" relative="1" as="geometry">
            <mxPoint x="2002" y="191" as="sourcePoint" />
            <mxPoint x="2052" y="141" as="targetPoint" />
          </mxGeometry>
        </mxCell>
        <mxCell id="xm1iW7sP6fKumooBNXpc-322" value="" style="endArrow=none;html=1;rounded=0;exitX=0.93;exitY=0.502;exitDx=0;exitDy=0;exitPerimeter=0;" parent="1" source="xm1iW7sP6fKumooBNXpc-327" edge="1">
          <mxGeometry width="50" height="50" relative="1" as="geometry">
            <mxPoint x="2010" y="247" as="sourcePoint" />
            <mxPoint x="2002" y="196" as="targetPoint" />
          </mxGeometry>
        </mxCell>
        <mxCell id="xm1iW7sP6fKumooBNXpc-324" value="" style="pointerEvents=1;verticalLabelPosition=bottom;shadow=0;dashed=0;align=center;html=1;verticalAlign=top;shape=mxgraph.electrical.signal_sources.signal_ground;" parent="1" vertex="1">
          <mxGeometry x="1965" y="220.44000000000003" width="20" height="17" as="geometry" />
        </mxCell>
        <mxCell id="xm1iW7sP6fKumooBNXpc-325" value="" style="endArrow=none;html=1;rounded=0;entryX=0.5;entryY=0;entryDx=0;entryDy=0;entryPerimeter=0;" parent="1" target="xm1iW7sP6fKumooBNXpc-324" edge="1">
          <mxGeometry width="50" height="50" relative="1" as="geometry">
            <mxPoint x="1975" y="212.44000000000003" as="sourcePoint" />
            <mxPoint x="1960" y="225.44000000000003" as="targetPoint" />
          </mxGeometry>
        </mxCell>
        <mxCell id="xm1iW7sP6fKumooBNXpc-326" value="" style="ellipse;whiteSpace=wrap;html=1;aspect=fixed;fillColor=#000000;" parent="1" vertex="1">
          <mxGeometry x="1972.75" y="210.00000000000003" width="4.5" height="4.5" as="geometry" />
        </mxCell>
        <mxCell id="xm1iW7sP6fKumooBNXpc-329" value="" style="endArrow=none;html=1;rounded=0;exitX=0.93;exitY=0.502;exitDx=0;exitDy=0;exitPerimeter=0;" parent="1" source="xm1iW7sP6fKumooBNXpc-315" target="xm1iW7sP6fKumooBNXpc-327" edge="1">
          <mxGeometry width="50" height="50" relative="1" as="geometry">
            <mxPoint x="1977" y="196" as="sourcePoint" />
            <mxPoint x="2002" y="196" as="targetPoint" />
          </mxGeometry>
        </mxCell>
        <mxCell id="xm1iW7sP6fKumooBNXpc-327" value="" style="ellipse;whiteSpace=wrap;html=1;aspect=fixed;fillColor=#000000;" parent="1" vertex="1">
          <mxGeometry x="2000" y="193.92000000000002" width="4.5" height="4.5" as="geometry" />
        </mxCell>
        <mxCell id="xm1iW7sP6fKumooBNXpc-331" value="" style="endArrow=none;html=1;rounded=0;exitX=0.891;exitY=0.5;exitDx=0;exitDy=0;exitPerimeter=0;" parent="1" source="xm1iW7sP6fKumooBNXpc-316" target="xm1iW7sP6fKumooBNXpc-330" edge="1">
          <mxGeometry width="50" height="50" relative="1" as="geometry">
            <mxPoint x="1976" y="212" as="sourcePoint" />
            <mxPoint x="2002.04" y="212.1" as="targetPoint" />
          </mxGeometry>
        </mxCell>
        <mxCell id="xm1iW7sP6fKumooBNXpc-330" value="" style="ellipse;whiteSpace=wrap;html=1;aspect=fixed;fillColor=#000000;" parent="1" vertex="1">
          <mxGeometry x="1987" y="209.92000000000002" width="4.5" height="4.5" as="geometry" />
        </mxCell>
        <mxCell id="xm1iW7sP6fKumooBNXpc-332" value="+12V" style="text;strokeColor=none;fillColor=none;html=1;fontSize=12;fontStyle=1;verticalAlign=middle;align=center;" parent="1" vertex="1">
          <mxGeometry x="1956" y="182.5" width="29" height="13" as="geometry" />
        </mxCell>
        <mxCell id="xm1iW7sP6fKumooBNXpc-333" value="" style="rounded=0;whiteSpace=wrap;html=1;strokeWidth=2;" parent="1" vertex="1">
          <mxGeometry x="1909" y="411" width="81" height="74" as="geometry" />
        </mxCell>
        <mxCell id="xm1iW7sP6fKumooBNXpc-334" value="Phone/tablet" style="text;strokeColor=none;fillColor=none;html=1;fontSize=17;fontStyle=1;verticalAlign=middle;align=center;" parent="1" vertex="1">
          <mxGeometry x="1893.5" y="480" width="112" height="32" as="geometry" />
        </mxCell>
        <mxCell id="xm1iW7sP6fKumooBNXpc-335" value="" style="line;strokeWidth=1;html=1;" parent="1" vertex="1">
          <mxGeometry x="1882" y="418" width="27" height="10" as="geometry" />
        </mxCell>
        <mxCell id="xm1iW7sP6fKumooBNXpc-336" value="" style="line;strokeWidth=1;html=1;" parent="1" vertex="1">
          <mxGeometry x="1882" y="434" width="27" height="10" as="geometry" />
        </mxCell>
        <mxCell id="xm1iW7sP6fKumooBNXpc-337" value="" style="line;strokeWidth=1;html=1;" parent="1" vertex="1">
          <mxGeometry x="1882" y="450" width="27" height="10" as="geometry" />
        </mxCell>
        <mxCell id="xm1iW7sP6fKumooBNXpc-338" value="" style="line;strokeWidth=1;html=1;" parent="1" vertex="1">
          <mxGeometry x="1882" y="466" width="27" height="10" as="geometry" />
        </mxCell>
        <mxCell id="xm1iW7sP6fKumooBNXpc-352" value="" style="line;strokeWidth=1;html=1;" parent="1" vertex="1">
          <mxGeometry x="1657" y="433.64" width="103" height="10" as="geometry" />
        </mxCell>
        <mxCell id="xm1iW7sP6fKumooBNXpc-353" value="" style="line;strokeWidth=1;html=1;" parent="1" vertex="1">
          <mxGeometry x="1657" y="449.64" width="111" height="10" as="geometry" />
        </mxCell>
        <mxCell id="xm1iW7sP6fKumooBNXpc-360" value="" style="endArrow=none;html=1;rounded=0;edgeStyle=orthogonalEdgeStyle;entryX=0;entryY=0.5;entryDx=0;entryDy=0;entryPerimeter=0;exitX=0;exitY=0.5;exitDx=0;exitDy=0;exitPerimeter=0;" parent="1" source="xm1iW7sP6fKumooBNXpc-361" target="xm1iW7sP6fKumooBNXpc-353" edge="1">
          <mxGeometry width="50" height="50" relative="1" as="geometry">
            <mxPoint x="1598" y="554" as="sourcePoint" />
            <mxPoint x="1648" y="504" as="targetPoint" />
            <Array as="points">
              <mxPoint x="1565" y="440" />
              <mxPoint x="1565" y="489" />
              <mxPoint x="1654" y="489" />
              <mxPoint x="1654" y="455" />
            </Array>
          </mxGeometry>
        </mxCell>
        <mxCell id="xm1iW7sP6fKumooBNXpc-362" value="" style="endArrow=none;html=1;rounded=0;edgeStyle=orthogonalEdgeStyle;entryX=0;entryY=0.5;entryDx=0;entryDy=0;entryPerimeter=0;exitX=0;exitY=0.5;exitDx=0;exitDy=0;exitPerimeter=0;" parent="1" source="xm1iW7sP6fKumooBNXpc-203" target="xm1iW7sP6fKumooBNXpc-361" edge="1">
          <mxGeometry width="50" height="50" relative="1" as="geometry">
            <mxPoint x="1560" y="440" as="sourcePoint" />
            <mxPoint x="1657" y="455" as="targetPoint" />
            <Array as="points" />
          </mxGeometry>
        </mxCell>
        <mxCell id="xm1iW7sP6fKumooBNXpc-361" value="" style="ellipse;whiteSpace=wrap;html=1;aspect=fixed;fillColor=#000000;" parent="1" vertex="1">
          <mxGeometry x="1563" y="437.56" width="4.5" height="4.5" as="geometry" />
        </mxCell>
        <mxCell id="xm1iW7sP6fKumooBNXpc-364" value="" style="endArrow=none;html=1;rounded=0;edgeStyle=orthogonalEdgeStyle;entryX=0;entryY=0.5;entryDx=0;entryDy=0;entryPerimeter=0;exitX=0.5;exitY=0;exitDx=0;exitDy=0;" parent="1" source="xm1iW7sP6fKumooBNXpc-365" target="xm1iW7sP6fKumooBNXpc-352" edge="1">
          <mxGeometry width="50" height="50" relative="1" as="geometry">
            <mxPoint x="1574" y="448" as="sourcePoint" />
            <mxPoint x="1624" y="398" as="targetPoint" />
            <Array as="points">
              <mxPoint x="1565" y="398" />
              <mxPoint x="1654" y="398" />
              <mxPoint x="1654" y="439" />
            </Array>
          </mxGeometry>
        </mxCell>
        <mxCell id="xm1iW7sP6fKumooBNXpc-366" value="" style="endArrow=none;html=1;rounded=0;edgeStyle=orthogonalEdgeStyle;entryX=0;entryY=0.5;entryDx=0;entryDy=0;entryPerimeter=0;exitX=0.25;exitY=0.5;exitDx=0;exitDy=0;exitPerimeter=0;" parent="1" source="xm1iW7sP6fKumooBNXpc-202" target="xm1iW7sP6fKumooBNXpc-365" edge="1">
          <mxGeometry width="50" height="50" relative="1" as="geometry">
            <mxPoint x="1566" y="425" as="sourcePoint" />
            <mxPoint x="1657" y="439" as="targetPoint" />
            <Array as="points" />
          </mxGeometry>
        </mxCell>
        <mxCell id="xm1iW7sP6fKumooBNXpc-365" value="" style="ellipse;whiteSpace=wrap;html=1;aspect=fixed;fillColor=#000000;" parent="1" vertex="1">
          <mxGeometry x="1563" y="422.75" width="4.5" height="4.5" as="geometry" />
        </mxCell>
        <mxCell id="xm1iW7sP6fKumooBNXpc-372" value="USB VCC" style="text;strokeColor=none;fillColor=none;html=1;fontSize=12;fontStyle=1;verticalAlign=middle;align=center;" parent="1" vertex="1">
          <mxGeometry x="1910.08" y="416.5" width="59.96" height="13" as="geometry" />
        </mxCell>
        <mxCell id="xm1iW7sP6fKumooBNXpc-373" value="GND" style="text;strokeColor=none;fillColor=none;html=1;fontSize=12;fontStyle=1;verticalAlign=middle;align=center;" parent="1" vertex="1">
          <mxGeometry x="1912" y="466" width="28.96" height="13" as="geometry" />
        </mxCell>
        <mxCell id="xm1iW7sP6fKumooBNXpc-374" value="USB Data +" style="text;strokeColor=none;fillColor=none;html=1;fontSize=12;fontStyle=1;verticalAlign=middle;align=center;" parent="1" vertex="1">
          <mxGeometry x="1910.08" y="432.5" width="68.92" height="13" as="geometry" />
        </mxCell>
        <mxCell id="xm1iW7sP6fKumooBNXpc-375" value="USB Data -" style="text;strokeColor=none;fillColor=none;html=1;fontSize=12;fontStyle=1;verticalAlign=middle;align=center;" parent="1" vertex="1">
          <mxGeometry x="1909" y="448.14" width="70" height="13" as="geometry" />
        </mxCell>
        <mxCell id="JY31BKh2HzPuSceJ8Ref-1" value="" style="endArrow=none;html=1;rounded=0;entryX=0.5;entryY=1;entryDx=0;entryDy=0;exitX=0.5;exitY=0;exitDx=0;exitDy=0;exitPerimeter=0;" parent="1" source="xm1iW7sP6fKumooBNXpc-171" target="xm1iW7sP6fKumooBNXpc-154" edge="1">
          <mxGeometry width="50" height="50" relative="1" as="geometry">
            <mxPoint x="1458" y="213" as="sourcePoint" />
            <mxPoint x="1508" y="163" as="targetPoint" />
          </mxGeometry>
        </mxCell>
        <mxCell id="I9geFzOm4bp1p0bmxXQw-4" value="" style="endArrow=none;html=1;rounded=0;exitX=1;exitY=0.5;exitDx=0;exitDy=0;exitPerimeter=0;entryX=0;entryY=0.5;entryDx=0;entryDy=0;entryPerimeter=0;edgeStyle=orthogonalEdgeStyle;" edge="1" parent="1" source="xm1iW7sP6fKumooBNXpc-352" target="xm1iW7sP6fKumooBNXpc-335">
          <mxGeometry width="50" height="50" relative="1" as="geometry">
            <mxPoint x="1757" y="501" as="sourcePoint" />
            <mxPoint x="1797" y="441" as="targetPoint" />
            <Array as="points">
              <mxPoint x="1860" y="439" />
              <mxPoint x="1860" y="423" />
            </Array>
          </mxGeometry>
        </mxCell>
        <mxCell id="I9geFzOm4bp1p0bmxXQw-5" value="" style="endArrow=none;html=1;rounded=0;entryX=0;entryY=0.5;entryDx=0;entryDy=0;entryPerimeter=0;exitX=1;exitY=0.5;exitDx=0;exitDy=0;exitPerimeter=0;edgeStyle=orthogonalEdgeStyle;" edge="1" parent="1" source="xm1iW7sP6fKumooBNXpc-353" target="xm1iW7sP6fKumooBNXpc-338">
          <mxGeometry width="50" height="50" relative="1" as="geometry">
            <mxPoint x="1760" y="497" as="sourcePoint" />
            <mxPoint x="1810" y="447" as="targetPoint" />
            <Array as="points">
              <mxPoint x="1860" y="455" />
              <mxPoint x="1860" y="471" />
            </Array>
          </mxGeometry>
        </mxCell>
      </root>
    </mxGraphModel>
  </diagram>
</mxfile>
